
		<svg width="3166.590795818136" height="3163.054462072599" xmlns="http://www.w3.org/2000/svg" xmlns:xlink="http://www.w3.org/1999/xlink" version="1.1">
            <g transform="scale(8.329539790906802) translate(10, 10)">
				<defs id="SvgjsDefs1002"/><g id="SvgjsG1008" transform="translate(-0.031818389892578125, -0.039947509765625) scale(7.299888802030515)" rel="inversefill" name="filled_container" xmlns:name="filledContainer_inversefill" fill="#FFFFFF">  <title xmlns="http://www.w3.org/2000/svg">assets</title>  <path xmlns="http://www.w3.org/2000/svg" d="M99.86,475.88a0.24,0.24,0,0,0,0-.39l-0.82-.68a0.26,0.26,0,0,1,0-.42l0.82-.69a0.24,0.24,0,0,0,0-.39l-0.88-.6a0.26,0.26,0,0,1,0-.42l0.76-.76a0.24,0.24,0,0,0-.05-0.39l-0.93-.52a0.26,0.26,0,0,1-.08-0.41l0.69-.82a0.24,0.24,0,0,0-.09-0.38l-1-.44a0.26,0.26,0,0,1-.11-0.4l0.61-.88a0.24,0.24,0,0,0-.12-0.38l-1-.35a0.26,0.26,0,0,1-.15-0.39l0.53-.93a0.23,0.23,0,0,0-.15-0.36l-1-.26a0.26,0.26,0,0,1-.18-0.38l0.45-1a0.24,0.24,0,0,0-.19-0.35l-1.06-.17a0.26,0.26,0,0,1-.21-0.36l0.36-1a0.24,0.24,0,0,0-.22-0.33L94.7,461a0.26,0.26,0,0,1-.24-0.34l0.27-1a0.24,0.24,0,0,0-.24-0.31l-1.07,0a0.26,0.26,0,0,1-.27-0.32L93.32,458a0.24,0.24,0,0,0-.27-0.29l-1.06.12a0.26,0.26,0,0,1-.3-0.29l0.08-1.06a0.23,0.23,0,0,0-.3-0.26l-1,.21a0.26,0.26,0,0,1-.32-0.26v-1.07a0.24,0.24,0,0,0-.32-0.24l-1,.3a0.26,0.26,0,0,1-.35-0.23l-0.11-1.06a0.24,0.24,0,0,0-.34-0.21L87,454a0.26,0.26,0,0,1-.37-0.2l-0.2-1a0.24,0.24,0,0,0-.35-0.18l-1,.48a0.26,0.26,0,0,1-.38-0.17l-0.29-1a0.24,0.24,0,0,0-.37-0.14l-0.91.56a0.26,0.26,0,0,1-.4-0.13l-0.38-1A0.24,0.24,0,0,0,82,451l-0.86.64a0.26,0.26,0,0,1-.41-0.1l-0.47-1a0.24,0.24,0,0,0-.39-0.08l-0.8.71a0.26,0.26,0,0,1-.41-0.06l-0.55-.92a0.24,0.24,0,0,0-.39,0L77,451a0.26,0.26,0,0,1-.42,0l-0.63-.86a0.24,0.24,0,0,0-.39,0l-0.66.84a0.26,0.26,0,0,1-.42,0l-0.7-.8a0.24,0.24,0,0,0-.39,0l-0.58.9a0.26,0.26,0,0,1-.41,0l-0.77-.74a0.23,0.23,0,0,0-.39.06l-0.5.94a0.26,0.26,0,0,1-.41.08l-0.83-.67a0.23,0.23,0,0,0-.38.1l-0.42,1a0.26,0.26,0,0,1-.4.12l-0.89-.59a0.24,0.24,0,0,0-.37.13l-0.33,1a0.26,0.26,0,0,1-.39.15l-0.94-.51a0.24,0.24,0,0,0-.36.16l-0.24,1a0.26,0.26,0,0,1-.37.19l-1-.43a0.23,0.23,0,0,0-.34.19l-0.14,1.06a0.26,0.26,0,0,1-.35.22l-1-.34a0.24,0.24,0,0,0-.33.22l0,1.07a0.26,0.26,0,0,1-.33.25l-1-.25a0.24,0.24,0,0,0-.3.25l0,1.07a0.26,0.26,0,0,1-.31.28l-1.06-.15a0.24,0.24,0,0,0-.28.28L58,458.39a0.26,0.26,0,0,1-.28.31l-1.07-.06a0.24,0.24,0,0,0-.26.3l0.23,1a0.26,0.26,0,0,1-.26.33l-1.07,0a0.24,0.24,0,0,0-.23.32l0.32,1a0.26,0.26,0,0,1-.23.35l-1.06.13a0.24,0.24,0,0,0-.2.34l0.41,1a0.26,0.26,0,0,1-.19.37l-1,.22a0.24,0.24,0,0,0-.17.36l0.5,0.95a0.26,0.26,0,0,1-.16.39l-1,.31a0.24,0.24,0,0,0-.14.37l0.58,0.9a0.26,0.26,0,0,1-.13.4l-1,.4a0.24,0.24,0,0,0-.1.38l0.66,0.84a0.26,0.26,0,0,1-.09.41l-0.95.49a0.24,0.24,0,0,0-.07.39l0.73,0.78a0.26,0.26,0,0,1-.05.41l-0.9.57a0.24,0.24,0,0,0,0,.39l0.79,0.71a0.26,0.26,0,0,1,0,.42l-0.85.65a0.24,0.24,0,0,0,0,.39l0.85,0.64a0.26,0.26,0,0,1,0,.42l-0.79.72a0.23,0.23,0,0,0,0,.39l0.91,0.56a0.26,0.26,0,0,1,.06.41l-0.72.79a0.24,0.24,0,0,0,.07.39l1,0.48a0.26,0.26,0,0,1,.09.41l-0.65.85a0.24,0.24,0,0,0,.11.38l1,0.39a0.26,0.26,0,0,1,.13.4l-0.57.9a0.24,0.24,0,0,0,.14.37l1,0.31a0.26,0.26,0,0,1,.16.38l-0.49.95a0.24,0.24,0,0,0,.17.36l1,0.21a0.26,0.26,0,0,1,.2.37l-0.4,1a0.24,0.24,0,0,0,.2.34l1.06,0.12a0.26,0.26,0,0,1,.23.35l-0.31,1a0.24,0.24,0,0,0,.23.32l1.07,0a0.26,0.26,0,0,1,.26.33l-0.22,1a0.24,0.24,0,0,0,.26.3l1.07-.07a0.26,0.26,0,0,1,.29.3L58,492.22a0.24,0.24,0,0,0,.28.27l1.06-.16a0.26,0.26,0,0,1,.31.28l0,1.07a0.24,0.24,0,0,0,.31.25l1-.25a0.26,0.26,0,0,1,.34.25L61.38,495a0.24,0.24,0,0,0,.33.22l1-.35a0.26,0.26,0,0,1,.36.22l0.15,1.06a0.24,0.24,0,0,0,.35.19l1-.43a0.26,0.26,0,0,1,.37.19l0.25,1a0.24,0.24,0,0,0,.36.16l0.93-.52a0.26,0.26,0,0,1,.39.15l0.34,1a0.24,0.24,0,0,0,.37.13l0.88-.6a0.26,0.26,0,0,1,.4.12l0.42,1a0.24,0.24,0,0,0,.38.09l0.83-.67a0.26,0.26,0,0,1,.41.08L71.41,499a0.23,0.23,0,0,0,.39.06l0.77-.75a0.26,0.26,0,0,1,.42,0l0.59,0.89a0.24,0.24,0,0,0,.39,0l0.7-.81a0.26,0.26,0,0,1,.42,0l0.67,0.83a0.24,0.24,0,0,0,.39,0l0.62-.87a0.26,0.26,0,0,1,.42,0l0.74,0.77a0.24,0.24,0,0,0,.39,0l0.54-.92a0.26,0.26,0,0,1,.41-0.07l0.8,0.7a0.23,0.23,0,0,0,.39-0.08l0.46-1a0.26,0.26,0,0,1,.4-0.1l0.86,0.63a0.24,0.24,0,0,0,.38-0.11l0.37-1a0.26,0.26,0,0,1,.39-0.14l0.91,0.55a0.24,0.24,0,0,0,.37-0.15l0.28-1a0.26,0.26,0,0,1,.38-0.17l1,0.47a0.24,0.24,0,0,0,.35-0.18l0.19-1.05a0.26,0.26,0,0,1,.36-0.21l1,0.38a0.24,0.24,0,0,0,.34-0.21l0.1-1.06a0.26,0.26,0,0,1,.34-0.24l1,0.29a0.24,0.24,0,0,0,.32-0.24v-1.07a0.26,0.26,0,0,1,.32-0.27l1,0.2a0.24,0.24,0,0,0,.29-0.26l-0.09-1.06a0.26,0.26,0,0,1,.3-0.29l1.06,0.11a0.24,0.24,0,0,0,.27-0.29l-0.19-1.05a0.26,0.26,0,0,1,.27-0.32h1.07a0.24,0.24,0,0,0,.24-0.31l-0.28-1a0.26,0.26,0,0,1,.24-0.34l1.07-.08a0.23,0.23,0,0,0,.21-0.33l-0.37-1a0.26,0.26,0,0,1,.21-0.36l1.05-.18a0.24,0.24,0,0,0,.18-0.35l-0.46-1a0.26,0.26,0,0,1,.18-0.38l1-.27a0.24,0.24,0,0,0,.15-0.36L97.54,483a0.26,0.26,0,0,1,.14-0.39l1-.36a0.24,0.24,0,0,0,.12-0.38L98.19,481a0.26,0.26,0,0,1,.11-0.4l1-.45a0.23,0.23,0,0,0,.09-0.39L98.67,479a0.26,0.26,0,0,1,.07-0.41l0.93-.53a0.24,0.24,0,0,0,.05-0.39L99,476.91a0.26,0.26,0,0,1,0-.42ZM75.28,497.56A22.86,22.86,0,1,1,98.14,474.7,22.86,22.86,0,0,1,75.28,497.56Z" transform="translate(-50.59 -450)"/>  <path xmlns="http://www.w3.org/2000/svg" d="M75.28,453A21.68,21.68,0,1,0,97,474.7,21.71,21.71,0,0,0,75.28,453ZM96.18,474.7a20.89,20.89,0,1,1-20.89-20.89A20.92,20.92,0,0,1,96.18,474.7Z" transform="translate(-50.59 -450)"/></g><g id="main_text" rel="mainfill" name="main_text" xmlns:name="mainText_mainfill" fill="#FFFFFF" transform="translate(148.75527952209984, 135.70470216820829)"><path d="M16.83 42.955 c1.76 -3.575 4.51 -9.405 6.05 -12.595 l7.04 0 c-1.43 2.86 -5.445 11.11 -6.875 13.915 c-2.75 5.445 -4.125 7.535 -6.49 10.725 c-0.935 0.11 -1.815 0.165 -3.905 0.165 c-2.035 0 -2.915 -0.055 -3.74 -0.165 c-1.045 -3.19 -1.54 -5.28 -1.98 -10.725 c-0.22 -2.805 -0.715 -11.055 -0.935 -13.915 l7.04 0 c0.11 3.19 0.44 9.02 0.66 12.595 c0.055 1.705 0.22 3.575 0.44 5.28 c0.935 -1.705 1.87 -3.575 2.695 -5.28 z M52.305 31.13 c-0.11 3.41 -0.66 7.315 -1.485 11.385 c-0.88 4.07 -2.035 7.975 -3.355 11.385 c-2.86 1.045 -6.655 1.595 -9.9 1.595 s-6.82 -0.55 -9.24 -1.595 c0 0 -0.385 -2.695 0.495 -6.765 c0.88 -4.125 2.365 -6.765 2.365 -6.765 c2.86 -1.045 6.655 -1.65 9.9 -1.65 c1.155 0 2.365 0.11 3.575 0.22 c0.275 -1.815 0.33 -3.08 0.33 -3.08 s-1.265 -0.44 -3.19 -0.44 c-5.17 0 -8.635 0.88 -10.12 1.265 c0.605 -1.925 1.21 -3.795 1.925 -5.555 c2.86 -1.045 6.215 -1.65 9.46 -1.65 s6.82 0.605 9.24 1.65 z M38.775 49.61 c1.925 0 3.41 -0.385 3.41 -0.385 s0.605 -1.76 1.21 -4.18 c-1.1 -0.22 -2.42 -0.385 -3.575 -0.385 c-1.925 0 -3.355 0.44 -3.355 0.44 s-0.44 0.275 -0.825 2.035 s-0.055 2.09 -0.055 2.09 s1.265 0.385 3.19 0.385 z M66.825 42.955 c1.76 -3.575 4.51 -9.405 6.05 -12.595 l7.04 0 c-1.43 2.86 -5.445 11.11 -6.875 13.915 c-1.815 3.63 -3.025 5.775 -4.345 7.755 l-11.11 17.875 c-1.87 -0.055 -4.565 -0.66 -6.435 -1.485 l8.47 -13.365 c-0.275 0 -0.55 0 -0.66 -0.055 c-1.1 -3.19 -1.595 -5.28 -2.035 -10.725 c-0.22 -2.805 -0.715 -11.055 -0.935 -13.915 l7.04 0 c0.11 3.19 0.44 9.02 0.66 12.595 c0.055 1.705 0.22 3.575 0.495 5.28 c0.88 -1.705 1.815 -3.575 2.64 -5.28 z  M97.625 46.2 c0.935 2.585 2.585 6.435 3.685 8.8 l-8.03 0 c-0.99 -1.98 -1.815 -4.125 -2.585 -6.435 l-1.155 -3.575 l-3.245 0 l-2.09 10.01 l-6.82 0 l7.755 -36.575 c2.365 0.11 5.17 0.605 6.545 1.375 l-4.125 19.25 l3.245 0 l3.685 -4.18 c1.155 -1.32 2.585 -2.915 3.85 -4.51 l7.92 0 c-2.2 2.915 -5.005 6.38 -7.81 9.295 l-2.365 2.42 c0.44 1.1 0.99 2.53 1.54 4.125 z M128.975 31.13 c-0.11 3.41 -0.66 7.315 -1.485 11.385 c-0.88 4.07 -2.035 7.975 -3.355 11.385 c-2.86 1.045 -6.655 1.595 -9.9 1.595 s-6.82 -0.55 -9.24 -1.595 c0 0 -0.385 -2.695 0.495 -6.765 c0.88 -4.125 2.365 -6.765 2.365 -6.765 c2.86 -1.045 6.655 -1.65 9.9 -1.65 c1.155 0 2.365 0.11 3.575 0.22 c0.275 -1.815 0.33 -3.08 0.33 -3.08 s-1.265 -0.44 -3.19 -0.44 c-5.17 0 -8.635 0.88 -10.12 1.265 c0.605 -1.925 1.21 -3.795 1.925 -5.555 c2.86 -1.045 6.215 -1.65 9.46 -1.65 s6.82 0.605 9.24 1.65 z M115.44500000000001 49.61 c1.925 0 3.41 -0.385 3.41 -0.385 s0.605 -1.76 1.21 -4.18 c-1.1 -0.22 -2.42 -0.385 -3.575 -0.385 c-1.925 0 -3.355 0.44 -3.355 0.44 s-0.44 0.275 -0.825 2.035 s-0.055 2.09 -0.055 2.09 s1.265 0.385 3.19 0.385 z M143.495 42.955 c1.76 -3.575 4.51 -9.405 6.05 -12.595 l7.04 0 c-1.43 2.86 -5.445 11.11 -6.875 13.915 c-1.815 3.63 -3.025 5.775 -4.345 7.755 l-11.11 17.875 c-1.87 -0.055 -4.565 -0.66 -6.435 -1.485 l8.47 -13.365 c-0.275 0 -0.55 0 -0.66 -0.055 c-1.1 -3.19 -1.595 -5.28 -2.035 -10.725 c-0.22 -2.805 -0.715 -11.055 -0.935 -13.915 l7.04 0 c0.11 3.19 0.44 9.02 0.66 12.595 c0.055 1.705 0.22 3.575 0.495 5.28 c0.88 -1.705 1.815 -3.575 2.64 -5.28 z "/></g><g id="SvgjsG1010" rel="mainfill" name="symbol" xmlns:name="symbol_mainfill" fill="#FFFFFF" transform="translate(38.88606930745229, 121.46879666602584) scale(1.1680181180549454)"><g xmlns="http://www.w3.org/2000/svg"><path d="M50,2.248c-20.046,0-36.354,16.309-36.355,36.355c0,4.068,0.667,8.062,1.982,11.873   c6.04,17.401,16.431,33.138,30.017,45.479c1.166,1.159,2.712,1.797,4.356,1.797c1.645,0,3.189-0.638,4.322-1.766   c13.617-12.37,24.009-28.108,30.051-45.513c1.314-3.81,1.982-7.805,1.982-11.871C86.355,18.557,70.047,2.248,50,2.248z    M82.482,49.819C76.551,66.908,66.35,82.359,52.945,94.537c-0.788,0.783-1.834,1.215-2.945,1.215c-1.111,0-2.158-0.432-2.979-1.246   c-13.371-12.148-23.573-27.6-29.503-44.685c-1.242-3.599-1.872-7.373-1.872-11.219C15.646,19.659,31.057,4.248,50,4.248   c18.943,0,34.355,15.411,34.355,34.354C84.355,42.446,83.725,46.22,82.482,49.819z"/><path d="M79.639,38.472C79.639,22.129,66.343,8.833,50,8.833S20.36,22.128,20.36,38.471c0,3.814,0.732,7.458,2.05,10.809   c0.014,0.039,0.027,0.076,0.045,0.113C26.813,60.345,37.514,68.109,50,68.109s23.186-7.765,27.544-18.715   c0.019-0.038,0.032-0.075,0.046-0.115C78.907,45.928,79.639,42.285,79.639,38.472z M50,10.833c15.24,0,27.639,12.397,27.639,27.638   c0,3.332-0.593,6.527-1.678,9.487H55.38l4.266-8.058l13.341,7.063c0.354,0.187,0.83,0.166,1.172-0.174   c0.311-0.308,0.385-0.782,0.184-1.171c-2.881-5.549-6.446-10.504-10.596-14.728c0,0-0.001-0.001-0.001-0.001   c-0.002-0.002-0.004-0.004-0.006-0.006c-0.154-0.156-0.354-0.24-0.529-0.282c-0.004-0.001-0.009-0.001-0.013-0.002   c-0.001,0-0.001,0-0.002,0c-5.935-1.105-12.148-1.301-18.31-0.575c-0.435,0.051-0.785,0.379-0.866,0.81s0.128,0.863,0.515,1.067   l13.343,7.063l-4.762,8.994H24.037c-1.085-2.959-1.677-6.155-1.677-9.486C22.36,23.232,34.759,10.833,50,10.833z M62.313,32.931   l1.624,6.978l-4.239-2.244c-0.001,0-0.001,0-0.001,0s-0.001,0-0.001,0l-4.07-2.155L62.313,32.931z M53.283,34.269l-4.834-2.559   c3.609-0.228,7.191-0.125,10.705,0.296L53.283,34.269z M64.862,35.063c2.246,2.619,4.283,5.482,6.093,8.561l-4.677-2.476   L64.862,35.063z M50,66.109c-11.144,0-20.761-6.631-25.13-16.151h27.188l-1.243,2.349c-0.259,0.488-0.072,1.093,0.416,1.352   c0.313,0.165,1.034,0.183,1.352-0.416l1.738-3.284h20.809C70.76,59.479,61.143,66.109,50,66.109z"/></g></g>
			</g>
		</svg>
    